<svg width="148" height="35" viewBox="0 0 148 35" fill="none" xmlns="http://www.w3.org/2000/svg">
<path d="M29 0H8.00005C4.13405 0 1.00005 3.13401 1.00005 7V28C1.00005 31.866 4.13405 35 8.00005 35H29C32.866 35 36 31.866 36 28V7C36 3.13401 32.866 0 29 0Z" fill="#F5B423"/>
<path d="M56.149 16.812C57.118 16.302 57.73 15.384 57.73 14.194C57.73 12.341 56.2 11.1 53.225 11.1H47.411V23H53.565C56.693 23 58.325 21.81 58.325 19.753C58.325 18.257 57.475 17.237 56.149 16.812ZM52.885 13.174C54.228 13.174 54.959 13.633 54.959 14.568C54.959 15.503 54.228 15.979 52.885 15.979H50.148V13.174H52.885ZM53.361 20.926H50.148V17.985H53.361C54.789 17.985 55.554 18.461 55.554 19.464C55.554 20.484 54.789 20.926 53.361 20.926ZM63.1471 20.79V18.036H68.6721V15.894H63.1471V13.31H69.4031V11.1H60.4101V23H69.6241V20.79H63.1471ZM75.7253 23.204C79.1253 23.204 80.7743 21.504 80.7743 19.515C80.7743 15.146 73.8553 16.659 73.8553 14.466C73.8553 13.718 74.4843 13.106 76.1163 13.106C77.1703 13.106 78.3093 13.412 79.4143 14.041L80.2643 11.95C79.1593 11.253 77.6293 10.896 76.1333 10.896C72.7503 10.896 71.1183 12.579 71.1183 14.602C71.1183 19.022 78.0373 17.492 78.0373 19.719C78.0373 20.45 77.3743 20.994 75.7423 20.994C74.3143 20.994 72.8183 20.484 71.8153 19.753L70.8803 21.827C71.9343 22.643 73.8383 23.204 75.7253 23.204ZM84.9551 23H87.7091V13.344H91.5171V11.1H81.1471V13.344H84.9551V23ZM101.723 23.204C105.123 23.204 106.772 21.504 106.772 19.515C106.772 15.146 99.8534 16.659 99.8534 14.466C99.8534 13.718 100.482 13.106 102.114 13.106C103.168 13.106 104.307 13.412 105.412 14.041L106.262 11.95C105.157 11.253 103.627 10.896 102.131 10.896C98.7484 10.896 97.1164 12.579 97.1164 14.602C97.1164 19.022 104.035 17.492 104.035 19.719C104.035 20.45 103.372 20.994 101.74 20.994C100.312 20.994 98.8164 20.484 97.8134 19.753L96.8784 21.827C97.9324 22.643 99.8364 23.204 101.723 23.204ZM116.814 11.1V15.792H111.408V11.1H108.654V23H111.408V18.121H116.814V23H119.568V11.1H116.814ZM128.147 23.204C131.887 23.204 134.658 20.603 134.658 17.05C134.658 13.497 131.887 10.896 128.147 10.896C124.39 10.896 121.636 13.514 121.636 17.05C121.636 20.586 124.39 23.204 128.147 23.204ZM128.147 20.858C126.022 20.858 124.424 19.311 124.424 17.05C124.424 14.789 126.022 13.242 128.147 13.242C130.272 13.242 131.87 14.789 131.87 17.05C131.87 19.311 130.272 20.858 128.147 20.858ZM141.878 11.1H136.727V23H139.481V19.719H141.878C145.057 19.719 147.046 18.07 147.046 15.418C147.046 12.749 145.057 11.1 141.878 11.1ZM141.725 17.475H139.481V13.344H141.725C143.408 13.344 144.258 14.109 144.258 15.418C144.258 16.71 143.408 17.475 141.725 17.475Z" fill="#F5B423"/>
<path d="M23.3202 8.54137C23.5176 8.6693 23.685 8.83825 23.8111 9.03679C23.9372 9.23534 24.0191 9.45868 24.0509 9.69171C24.1434 10.2636 24.1863 10.8441 24.2346 11.4204C24.2806 11.9689 24.2785 12.5221 24.3484 13.0671C24.4393 13.7916 24.5833 14.5096 24.7055 15.228C24.6884 15.2414 24.6704 15.2533 24.6507 15.2623C24.293 15.3618 23.9349 15.4576 23.5773 15.5571C22.7511 15.788 22.8243 15.6612 23.0375 16.492C23.1009 16.7481 23.2277 16.8065 23.4739 16.7361C23.9844 16.584 24.4996 16.4552 25.023 16.3128L25.451 17.4367C25.435 17.4538 25.4182 17.4699 25.3998 17.4844C25.0549 17.6698 24.7163 17.8578 24.3686 18.0381C23.7781 18.3507 23.7364 18.2908 24.0944 18.9386C24.2945 19.3001 24.3329 19.3128 24.6822 19.1218C25.108 18.8942 25.5325 18.6686 25.9506 18.4423L26.6694 19.5802C26.3379 19.8264 26.0263 20.0608 25.7137 20.2902C25.0524 20.7756 25.0747 20.6681 25.562 21.3421C25.716 21.5534 25.8576 21.5636 26.0604 21.4105C26.4791 21.0853 26.9131 20.7749 27.3452 20.4586C27.7883 20.8911 28.2008 21.315 28.6335 21.7115C29.633 22.5792 30.7201 23.3394 31.878 23.9805C32.2893 24.2148 32.6425 24.5391 32.9116 24.9285C33.1807 25.318 33.3592 25.7632 33.4329 26.2308C33.4438 26.3371 33.4118 26.4429 33.3447 26.5261C32.9124 27.0143 32.3439 27.3622 31.7125 27.525C30.9708 27.7101 30.198 27.7323 29.4469 27.5898C28.2205 27.3528 27.0424 26.9127 25.9608 26.2881C23.1067 24.7551 20.4291 22.9137 17.9767 20.7967C16.0376 19.1552 14.119 17.4899 12.1899 15.8392C11.0194 14.8366 9.83336 13.8547 8.68863 12.8254C7.7698 12.0082 6.98009 11.056 6.34743 10.0016C6.32148 9.97024 6.30209 9.93397 6.29061 9.89492C6.27913 9.85588 6.27611 9.81531 6.28097 9.7749C6.28582 9.7345 6.29875 9.69515 6.31915 9.65994C6.33955 9.62473 6.36674 9.59412 6.39938 9.56981C6.58382 9.39091 6.75626 9.20008 6.91539 8.99832C7.80813 7.76866 8.98572 6.77388 10.3478 6.10016C11.2909 5.66254 12.166 5.09075 12.9451 4.40229C13.0027 4.35178 13.0661 4.30841 13.1343 4.27365C13.1948 4.22965 13.2645 4.20013 13.338 4.18655C13.4115 4.17298 13.4873 4.17597 13.5595 4.19547C13.6317 4.21498 13.6979 4.2503 13.7545 4.29906C13.8112 4.34782 13.8562 4.40871 13.8863 4.47716C14.0319 4.75506 14.1414 5.05077 14.2106 5.35679C14.3725 6.06228 14.5214 6.77167 14.6382 7.48341C14.803 8.46715 15.2973 9.36611 16.0399 10.0321C17.1436 11.0199 18.4512 11.7522 19.87 12.1774C20.4746 12.3822 20.6914 12.2047 20.6995 11.5766C20.7012 11.1222 20.7636 10.6703 20.8848 10.2323C21.0598 9.5728 21.4499 8.99022 21.9934 8.57768C22.164 8.43006 22.3781 8.3422 22.6031 8.32638C22.8281 8.31057 23.0519 8.36796 23.2415 8.49027L23.3202 8.54137ZM8.87255 14.0654C11.4721 16.2949 14.0804 18.5144 16.6824 20.7395C18.8947 22.6805 21.2694 24.4279 23.7807 25.9625C25.0699 26.7951 26.4479 27.4815 27.8894 28.0082C28.7973 28.3962 29.7876 28.5507 30.7707 28.459C31.7538 28.3673 32.6991 28.0323 33.5196 27.4829C33.4675 27.6711 33.4419 27.804 33.3958 27.924C33.2261 28.3612 32.9527 28.7505 32.5982 29.0574C32.2436 29.3643 31.8189 29.5797 31.3619 29.685C30.4155 29.9524 29.4254 30.0311 28.4486 29.9166C26.8114 29.7316 25.2068 29.3294 23.6757 28.7205C21.3985 27.8657 19.2635 26.6721 17.3428 25.1797C16.3665 24.4186 15.4115 23.633 14.4254 22.887C12.9259 21.8566 11.3533 20.9364 9.7202 20.1344C7.88829 19.1579 6.13371 18.043 4.47201 16.7987C3.61392 16.1645 2.98727 15.2662 2.68814 14.242C2.55214 13.877 2.5364 13.4779 2.64403 13.1036C2.75166 12.7292 2.97664 12.3991 3.28572 12.162C4.05426 11.5469 4.83811 10.9534 5.63393 10.339C6.49408 11.756 7.58929 13.0161 8.87255 14.0654Z" fill="white"/>
</svg>
